<svg xmlns="http://www.w3.org/2000/svg" data-name="Layer 10" viewBox="0 0 55.23 93.35000000000001" x="0px" y="0px"><title>Lion</title><path d="M49.91,87.34c-.56,0-1,0-1.42,0a24.19,24.19,0,0,1-13.94-4.77,20.64,20.64,0,0,1-5.36-6.88l0,0a5.42,5.42,0,0,0-.71-.2c-1.46-.36-2.82-.75-3.42-1.44a7.19,7.19,0,0,1-1.46-4.74c-.07-4.63,2.48-9,3.81-10a.94.94,0,0,1,.86-.19c.35.13.49.46.54.9a1.84,1.84,0,0,1,1.07-1c1.65-.46,3.78,2.44,4.69,4.72,1.3,3.29-.54,7-1.63,9.17-.16.31-.3.59-.41.83A20.34,20.34,0,0,0,37,79.25c6.13,5,16.93,5.57,25.12,1.28a15.24,15.24,0,0,0,3.71-3.12c-5.31,2.23-14.49,3.16-20.12-2C43.79,73.63,43.3,72,41,64.32l-.57-1.89c-1.26-4.17-2.35-8.22-3.22-11.48-.66-2.48-1.24-4.63-1.71-6.15-7.35-.88-13.09-3.94-13.09-13.39,0-11.57,7-18.75,18.22-18.75C52.2,12.66,60,20.19,60,31.41a19.25,19.25,0,0,1-.62,5.16c3,.42,10.43,2.08,14.87,8.56a20.48,20.48,0,0,1,2.52,5.25,18.4,18.4,0,0,1,.31,10c-.25,1.25-.52,2.31-.94,3.91-.19.76-.42,1.64-.69,2.71-1.38,5.88-6.27,14-11.35,16.7A30.39,30.39,0,0,1,49.91,87.34ZM29,69.51a7.29,7.29,0,0,0,.34,3.94,20,20,0,0,0,5.84,8.29A23.25,23.25,0,0,0,48.55,86.3a29,29,0,0,0,15.07-3.44c4.84-2.59,9.51-10.39,10.85-16l.48.12-.48-.13c.27-1.07.5-2,.7-2.72.41-1.59.68-2.63.91-3.85a17.51,17.51,0,0,0-.27-9.56,19.92,19.92,0,0,0-2.39-5c-4.25-6.2-11.37-7.76-14.24-8.15h-.12c-2.24,6.16-8.43,7.58-17.26,7.58-1.79,0-3.56-.06-5.25-.21.45,1.5,1,3.51,1.6,5.78.22.85.47,1.76.73,2.72A22,22,0,0,0,41,55.29a15.81,15.81,0,0,1,1.21,1c2.62,2.76,4.52,7.3,5.35,12.77.07.51.27,1.71.48,3,.28,1.77.58,3.58.67,4.27a17.58,17.58,0,0,0,9.61,1.75,24.05,24.05,0,0,1-5.2-10.62c-.4-2.13-1.15-6.05,1-9.88a14.8,14.8,0,0,1-1.69-3.13l.94-.35a13.37,13.37,0,0,0,1.32,2.56,12.45,12.45,0,0,1,4.47-3.9l.47.88a11.29,11.29,0,0,0-4.47,4.15c-2.15,3.6-1.42,7.43-1,9.48A22.44,22.44,0,0,0,59.62,78a20,20,0,0,0,7.81-2.51,12.6,12.6,0,0,0,1.48-2.39l.93.37c-.71,1.79-4.26,6.39-7.25,8-8.53,4.47-19.8,3.88-26.22-1.39a25.35,25.35,0,0,1-6.22-8.49A12.09,12.09,0,0,0,29,69.51ZM39.37,55.22c.6,2.18,1.27,4.53,2,6.92L41.93,64c2.26,7.49,2.74,9,4.46,10.64a10.87,10.87,0,0,0,1.25,1c-.14-.91-.36-2.25-.55-3.42s-.4-2.5-.48-3C45.81,64,44,59.61,41.52,57c-.21-.21-.62-.54-1.1-.93S39.73,55.53,39.37,55.22ZM27.8,60.3a14,14,0,0,0-3.22,9,6.27,6.27,0,0,0,1.21,4.09,7.36,7.36,0,0,0,2.88,1.12c-.1-.23-.19-.46-.28-.7a7.72,7.72,0,0,1-.28-4.73,1,1,0,0,1,.57-.58c.88-.32,1.4.71,2.36,2.58.26.5.55,1.06.87,1.66l.11-.23c1-2.05,2.74-5.48,1.6-8.35-.94-2.37-2.77-4.33-3.49-4.12-.4.11-.71,1.07-.87,1.59s-.38,1.17-.93,1.08-.56-.71-.53-1.58A7.65,7.65,0,0,0,27.8,60.3ZM40.6,13.66c-10.62,0-17.22,6.8-17.22,17.75,0,10.55,7.37,12.71,18.42,12.71C52.69,44.12,59,42,59,31.41S51.6,13.66,40.6,13.66Zm-.42,28.76a8.67,8.67,0,0,1-4.47-1.21,8.82,8.82,0,0,1-4.06-5.31h0a10.23,10.23,0,0,1,2.24-8.43A8.83,8.83,0,0,1,40.64,24a8.79,8.79,0,0,1,6.9,3.83,10.11,10.11,0,0,1,1.91,8.48,8.9,8.9,0,0,1-4.76,5.14A10.8,10.8,0,0,1,40.18,42.42ZM40.6,25a7.62,7.62,0,0,0-5.93,3.14,9.39,9.39,0,0,0-2.05,7.58,8,8,0,0,0,3.6,4.68c3.66,2.17,7.59.36,8,.15A7.92,7.92,0,0,0,48.49,36a9.14,9.14,0,0,0-1.75-7.6A7.83,7.83,0,0,0,40.63,25ZM40.17,40.8l-.42-.66-.34.63-.88-.48,1.06-1.93a2.15,2.15,0,0,1-1.49-.89,1,1,0,0,1-.19-.91c.24-.68,1.22-.79,1.79-.79s1.61.07,1.86.75a1.1,1.1,0,0,1-.22,1,2,2,0,0,1-1.54.83L41,40.26Zm-1.25-3.92a1.11,1.11,0,0,0,.74.48,1.07,1.07,0,0,0,.91-.47A3,3,0,0,0,38.92,36.88Zm6.21-2L42,33.65l.37-.93,3.1,1.22Zm-10.48,0-.37-.93,3.11-1.22.36.93Zm16.26-7.09-.28-1a2.63,2.63,0,0,0,2-1.79A2.41,2.41,0,0,0,51.87,23a2.52,2.52,0,0,0-2.18-.84,2.79,2.79,0,0,0-2.09,2.56l-1-.11a3.8,3.8,0,0,1,2.91-3.44,3.53,3.53,0,0,1,3.07,1.14,3.36,3.36,0,0,1,1,2.95A3.56,3.56,0,0,1,50.91,27.78Zm-20.25,0A3.54,3.54,0,0,1,28,25.22a3.38,3.38,0,0,1,1-3,3.53,3.53,0,0,1,3.07-1.14A3.8,3.8,0,0,1,35,24.56l-1,.11a2.8,2.8,0,0,0-2.09-2.56A2.5,2.5,0,0,0,29.7,23,2.39,2.39,0,0,0,29,25a2.61,2.61,0,0,0,2,1.78Z" transform="translate(-22.38 -12.66)"/><text x="0" y="89.68" fill="#000000" font-size="5px" font-weight="bold" font-family="'Helvetica Neue', Helvetica, Arial-Unicode, Arial, Sans-serif">Created by Caroline Klimek</text><text x="0" y="94.68" fill="#000000" font-size="5px" font-weight="bold" font-family="'Helvetica Neue', Helvetica, Arial-Unicode, Arial, Sans-serif">from the Noun Project</text></svg>